<svg xmlns="http://www.w3.org/2000/svg" width="200" height="200" viewBox="0 0 200 200"><path fill="#555" d="M114.468 101.204l.157.963c0 .976-.482 1.913-1.33 2.502-2.713 1.874-2.353 1.4-3.377 4.462-.423 1.275-1.664 2.137-3.05 2.137h-.013c-3.348-.01-2.768-.192-5.46 1.702-.563.404-1.23.6-1.895.6s-1.332-.195-1.896-.595c-2.69-1.896-2.11-1.714-5.46-1.703h-.01c-1.385 0-2.626-.86-3.05-2.138-1.024-3.06-.672-2.586-3.373-4.463-.85-.593-1.335-1.53-1.335-2.506l.154-.957c1.044-3.046 1.05-2.46 0-5.515l-.155-.962c0-.975.485-1.913 1.336-2.506 2.702-1.876 2.345-1.396 3.375-4.463.423-1.275 1.664-2.137 3.05-2.137h.01c3.338.01 2.742.207 5.46-1.703.563-.404 1.23-.6 1.895-.6s1.332.196 1.896.595c2.69 1.894 2.11 1.713 5.46 1.702h.01c1.388 0 2.63.862 3.052 2.137 1.024 3.06.664 2.586 3.378 4.46.847.595 1.33 1.533 1.33 2.508l-.158.962c-1.044 3.046-1.044 2.46 0 5.514zm-7.406-6.038l-2.344-2.34-7.11 7.29-3.327-3.16-2.343 2.34 5.672 5.5 9.452-9.63zm22.688 23.448h-60.5v5.04h60.5v-5.04zm-5.04 10.084H74.29v5.04h50.417v-5.04zm5.04 10.082h-60.5v5.043h60.5v-5.043zm5.04-75.624H39V163.99h121V63.155h-25.21zm15.127 77.752c-5.8 2.54-10.46 7.197-12.998 12.998H62.08c-2.54-5.8-7.195-10.458-12.998-12.998v-54.67c5.803-2.54 10.457-7.197 12.998-13h74.837c2.538 5.803 7.196 10.46 12.997 13v54.67z"/><g fill="#2BB673"><path d="M72.865 51.346c0 1.15-.805 1.93-1.93 1.93-1.126 0-1.908-.78-1.908-1.93 0-1.126.782-1.907 1.908-1.907s1.93.78 1.93 1.906zM90.513 39.582l-2.366 2.803c-1.058-1.287-2.62-2.09-4.044-2.09-2.55 0-4.48 2.02-4.48 4.664 0 2.687 1.93 4.732 4.48 4.732 1.355 0 2.918-.735 4.044-1.884l2.39 2.528c-1.724 1.77-4.274 2.94-6.64 2.94-4.85 0-8.457-3.56-8.457-8.27 0-4.643 3.7-8.135 8.593-8.135 2.39 0 4.872 1.057 6.48 2.712zM97.638 40.225v3.194h7.675v3.216h-7.675v3.24h8.755v3.217H93.548V37.008h12.59v3.217h-8.5zM117.493 48.566h-3.217v4.527h-4.09V37.008h7.19c4.252 0 6.688 2.022 6.688 5.606 0 2.458-1.033 4.228-2.918 5.17l3.378 5.308h-4.642l-2.39-4.526zm-.115-3.217c1.77 0 2.804-.897 2.804-2.598 0-1.677-1.034-2.527-2.804-2.527h-3.102v5.124h3.102z"/></g><path fill="none" stroke="#FFF" stroke-width="7" stroke-miterlimit="10" d="M39 63.156h121V163.99H39z"/></svg>