<svg xmlns="http://www.w3.org/2000/svg" width="200" height="200" viewBox="0 0 200 200"><circle fill="#555" cx="97.303" cy="28.757" r="17.829"/><path fill="#FFF" d="M88.688 26.64l8.614-8.615 8.615 8.614-.312.31h-4.46v13.385H93.46V26.95H89"/><path fill="none" stroke="#555" stroke-width="2" stroke-miterlimit="10" d="M55.495 81.237h83.614v100.4H55.494v-100.4zm0-26h83.614V62H55.494v-6.763z"/><path fill="#555" stroke="#555" stroke-width="2" stroke-miterlimit="10" d="M54.993 55.237h59.57V62h-59.57v-6.763z"/><path fill="none" stroke="#555" stroke-width="4" stroke-miterlimit="10" d="M70.298 143.088h50.48m-50.48 7.91h50.48m-50.48 7.912h26.02"/><g fill="#2bb673"><path d="M72.804 120.84c0 1.05-.735 1.765-1.764 1.765s-1.743-.714-1.743-1.764c0-1.027.714-1.742 1.743-1.742s1.764.714 1.764 1.743zM89.917 122.437h-4.472l-3.17-4.683-3.17 4.683H74.76l5.248-7.517-4.913-7.18h4.346l2.835 4.282 2.834-4.283h4.387l-4.85 7.012 5.27 7.685zM105.436 122.437l-.02-9.554-3.528 8.084h-2.436l-3.527-8.084v9.554h-3.338V107.72h4.094l3.99 8.754 3.99-8.755h4.072v14.717h-3.296zM122.72 119.31v3.127h-9.974V107.74h3.737v11.57h6.236z"/></g></svg>