<svg xmlns="http://www.w3.org/2000/svg" width="200" height="200" viewBox="0 0 200 200"><path fill="none" stroke="#555" stroke-width="2" stroke-miterlimit="10" d="M20.61 34.2H184.35v137.3H20.61V34.2z"/><path fill="#555" d="M20.61 34.2H184.35V47H20.61V34.2z"/><circle fill="#FFF" cx="27.8" cy="40.6" r="3.2"/><circle fill="#FFF" cx="38.754" cy="40.6" r="3.2"/><circle fill="#FFF" cx="49.306" cy="40.6" r="3.2"/><g fill="#555"><path d="M39.3 66.116v2.43h4.71v2.1H39.3v3.87h-2.67v-10.5h7.786v2.1H39.3zM46.44 74.515v-10.5h2.67v10.5h-2.67zM56.73 71.56H54.63v2.955h-2.67v-10.5h4.696c2.774 0 4.364 1.32 4.364 3.66 0 1.605-.675 2.76-1.904 3.375l2.204 3.465h-3.03l-1.56-2.955zm-.074-2.1c1.154 0 1.83-.585 1.83-1.695 0-1.095-.676-1.65-1.83-1.65H54.63v3.345h2.026zM72.75 74.515l-.015-6.825-2.52 5.775h-1.74l-2.52-5.775v6.825H63.57V64h2.925l2.85 6.255L72.196 64h2.91v10.515H72.75zM80.355 72.58l-.765 1.935h-2.745l4.53-10.5h2.744l4.425 10.5h-2.85l-.75-1.935h-4.59zm2.31-5.91l-1.53 3.885h3.03l-1.5-3.885zM98.4 65.065l-1.005 2.085c-1.11-.645-2.505-1.095-3.36-1.095-.69 0-1.154.255-1.154.765 0 1.815 5.55.78 5.55 4.575 0 2.1-1.86 3.21-4.2 3.21-1.754 0-3.554-.66-4.8-1.68l1.036-2.055c1.08.945 2.7 1.575 3.795 1.575.84 0 1.366-.315 1.366-.915 0-1.86-5.55-.75-5.55-4.47 0-1.935 1.664-3.165 4.185-3.165 1.515 0 3.06.465 4.14 1.17z"/></g><path fill="#2BB673" d="M169.353 87.59l-10.15 10.402-4.755-4.506-3.34 3.342 8.095 7.85 13.49-13.748-3.34-3.34zM169.353 108.25l-10.15 10.403-4.755-4.507-3.34 3.343 8.095 7.85 13.49-13.75-3.34-3.34z"/><path fill="none" stroke="#ED5565" stroke-width="5" stroke-miterlimit="10" d="M153.08 135.474l15.054 15.052M168.134 135.474l-15.053 15.052"/><path fill="none" stroke="#555" stroke-width="6" stroke-miterlimit="10" d="M34.78 96.133h108.418M35.22 119.066h108.42M34.336 143h108.42"/></svg>