<svg xmlns="http://www.w3.org/2000/svg" width="200" height="150" viewBox="0 0 200 150"><path fill="none" stroke="#222" stroke-miterlimit="10" d="M12.485 44.47h61.968v74.408H12.485z"/><path d="M31.155 64.262c2.832 0 4.462 1.393 4.462 3.859 0 2.595-1.63 4.097-4.462 4.097h-2.009v3.118H26.33V64.262h4.825zm-2.009 5.743h1.867c1.234 0 1.945-.618 1.945-1.788 0-1.156-.711-1.741-1.945-1.741h-1.867v3.529zm14.292-5.743c3.48 0 5.883 2.245 5.883 5.536 0 3.274-2.435 5.538-5.995 5.538h-4.651V64.262h4.763zm-1.946 8.827H43.5c1.725 0 2.959-1.33 2.959-3.274 0-1.962-1.297-3.308-3.085-3.308h-1.882v6.582zm13.722-6.611v2.563h4.967v2.213h-4.967v4.083h-2.817V64.262h8.212v2.215h-5.395z" fill="#222"/><path fill="none" stroke="#222" stroke-width="2" stroke-miterlimit="10" d="M25.846 90.736h34.28m-34.28 4.693h34.28m-34.28 4.695h17.67M4.504 20h191.064v112.267H4.504z"/><path d="M94.715 52.194v1.847h3.579v1.598h-3.579v2.942h-2.032v-7.984h5.92v1.597h-3.888zm5.71 6.386v-7.983h2.031v7.983h-2.031zm8.107-2.246h-1.595v2.246h-2.033v-7.983h3.571c2.11 0 3.318 1.002 3.318 2.782 0 1.221-.514 2.099-1.449 2.566l1.677 2.635h-2.303l-1.186-2.246zm-.056-1.598c.878 0 1.393-.445 1.393-1.288 0-.832-.515-1.256-1.393-1.256h-1.538v2.544h1.538zm12.518 3.844l-.011-5.188-1.916 4.391h-1.324l-1.915-4.392v5.189h-1.812v-7.996h2.226l2.165 4.756 2.169-4.756h2.212v7.996h-1.794zm6.066-1.471l-.582 1.471h-2.087l3.444-7.983h2.087l3.365 7.983h-2.167l-.571-1.471h-3.489zm1.754-4.493l-1.162 2.953h2.304l-1.142-2.953zm11.644 5.964l-3.674-4.916v4.916h-1.903v-7.983h1.789l3.684 4.928v-4.928h1.892v7.983h-1.788zm7.934-6.353v6.353h-2.031v-6.353h-2.385v-1.643h6.822v1.643h-2.406zm6.155-.033v1.584h3.81v1.598h-3.81v1.607h4.346v1.597h-6.376v-7.983h6.25v1.597h-4.22zm12.726-.799l-.766 1.586c-.844-.492-1.903-.833-2.553-.833-.527 0-.879.193-.879.583 0 1.378 4.219.592 4.219 3.477 0 1.598-1.414 2.442-3.191 2.442-1.336 0-2.704-.503-3.65-1.278l.787-1.562c.821.718 2.053 1.197 2.885 1.197.64 0 1.038-.24 1.038-.697 0-1.415-4.221-.569-4.221-3.399 0-1.47 1.267-2.406 3.183-2.406 1.152 0 2.326.354 3.148.89z" fill="#010101"/><path fill="none" stroke="#222" stroke-miterlimit="10" d="M184.813 87.828H90.974"/><path fill="#222" d="M4.504 20h191.064v11.424H4.504z"/><circle fill="#FFF" cx="10.027" cy="24.917" r="2.458"/><circle fill="#FFF" cx="18.441" cy="24.917" r="2.458"/><circle fill="#FFF" cx="26.548" cy="24.917" r="2.458"/><path fill="none" stroke="#222" stroke-miterlimit="10" d="M184.813 110.348H90.974"/><path d="M92.588 104.788l-.567 1.334h-1.038l2.61-5.913h1.022l2.585 5.913h-1.065l-.567-1.334h-2.98zm1.487-3.516l-1.116 2.628h2.23l-1.114-2.628zm8.147 4.85l-3.15-4.241v4.241h-.998v-5.913h.979l3.168 4.248v-4.248h.979v5.913h-.978zm3.466-1.334l-.566 1.334h-1.039l2.611-5.913h1.021l2.585 5.913h-1.064l-.565-1.334h-2.983zm1.488-3.516l-1.116 2.628h2.23l-1.114-2.628zm11.162 2.553c0 1.274-.667 2.103-1.614 2.103-.515 0-.886-.212-.979-.685l-.017-.169c-.347.508-.871.752-1.453.752a1.936 1.936 0 0 1-1.952-1.977c0-1.114.734-2.019 1.859-2.019.742 0 1.25.455 1.334.634v-.55h.912v2.948c0 .32.16.457.389.457.414 0 .794-.601.794-1.471 0-1.682-1.174-2.973-3.05-2.973-1.757 0-3.15 1.317-3.15 2.989 0 1.647 1.318 2.848 3.041 2.848.499 0 1.158-.162 1.631-.498l.346.616c-.498.354-1.335.583-1.977.583-2.146 0-3.767-1.514-3.767-3.549 0-2.077 1.697-3.675 3.876-3.675 2.171.002 3.777 1.532 3.777 3.636zm-5.026-.018c0 .65.422 1.191 1.063 1.191.667 0 1.081-.522 1.081-1.183 0-.633-.431-1.14-1.098-1.14-.624.001-1.046.508-1.046 1.132zm7.175-2.703v1.598h2.89v.896h-2.89v1.629h3.329v.896h-4.325v-5.913h4.223v.895h-3.227zm9.964 5.018l-.008-4.418-1.869 3.802h-.649l-1.867-3.802v4.418h-.938v-5.913h1.185l1.95 3.928 1.942-3.928h1.175v5.913h-.921zm3.408-1.334l-.566 1.334h-1.038l2.61-5.913h1.021l2.585 5.913h-1.064l-.564-1.334h-2.984zm1.488-3.516l-1.115 2.628h2.229l-1.114-2.628zm3.999 4.85v-5.913h.997v5.913h-.997zm6.192-.904v.904h-3.557v-5.913h.998v5.009h2.559zm1.718.414c0 .329-.229.565-.533.565-.304 0-.532-.236-.532-.565 0-.321.229-.548.532-.548.304 0 .533.227.533.548zm6.116-4.536l-.583.727c-.431-.464-1.047-.752-1.646-.752-1.183 0-2.112.912-2.112 2.078 0 1.165.93 2.087 2.112 2.087.591 0 1.199-.27 1.646-.701l.592.659c-.6.59-1.454.971-2.29.971-1.731 0-3.073-1.309-3.073-3.007 0-1.681 1.358-2.974 3.107-2.974.836 0 1.672.346 2.247.912zm6.762 2.069c0 1.69-1.369 2.999-3.135 2.999-1.765 0-3.133-1.309-3.133-2.999 0-1.696 1.368-2.981 3.133-2.981 1.766 0 3.135 1.293 3.135 2.981zm-5.254 0c0 1.174.971 2.104 2.129 2.104a2.1 2.1 0 0 0 2.103-2.104 2.084 2.084 0 0 0-2.103-2.087c-1.166 0-2.129.912-2.129 2.087zm11.737 2.957l-.008-4.418-1.869 3.802h-.649l-1.866-3.802v4.418h-.938v-5.913h1.183l1.95 3.928 1.942-3.928h1.175v5.913h-.92zM94.839 81.258c0 1.19-.701 1.867-1.841 1.867-.709 0-1.301-.312-1.74-.854l.473-.759c.388.422.853.65 1.258.65.531 0 .845-.33.845-.938v-3.16H91.79v-.895h3.048v4.089zm7.293-1.132c0 1.689-1.369 2.999-3.134 2.999-1.764 0-3.133-1.31-3.133-2.999 0-1.697 1.369-2.982 3.133-2.982 1.765 0 3.134 1.293 3.134 2.982zm-5.254 0c0 1.173.971 2.104 2.128 2.104s2.102-.931 2.102-2.104a2.083 2.083 0 0 0-2.102-2.087c-1.165 0-2.128.912-2.128 2.087zm9.076 1.165c-.085.008-.179.008-.27.008h-1.403v1.783h-.996v-5.913h2.399c1.511 0 2.383.735 2.383 2.019 0 .946-.44 1.613-1.228 1.918l1.326 1.977h-1.131l-1.08-1.792zm-.269-.888c.91 0 1.436-.388 1.436-1.189 0-.777-.525-1.15-1.436-1.15h-1.403v2.34h1.403zm8.712-.226v2.179c-.6.457-1.488.77-2.297.77-1.75 0-3.109-1.31-3.109-2.999s1.376-2.982 3.167-2.982c.845 0 1.689.32 2.273.828l-.567.734a2.573 2.573 0 0 0-1.706-.675c-1.208 0-2.154.92-2.154 2.095 0 1.182.955 2.104 2.162 2.104.441 0 .938-.153 1.36-.406v-1.646h.871zm2.497-2.114v1.598h2.889v.896h-2.889v1.63h3.326v.896h-4.325V77.17h4.224v.895h-3.225zm11.794 2.722c0 1.275-.669 2.103-1.615 2.103-.514 0-.886-.211-.979-.685l-.017-.168c-.347.507-.869.751-1.452.751a1.935 1.935 0 0 1-1.95-1.977c0-1.114.734-2.018 1.856-2.018.743 0 1.251.455 1.334.633v-.55h.913v2.948c0 .32.161.457.389.457.416 0 .795-.6.795-1.471 0-1.682-1.175-2.973-3.052-2.973-1.755 0-3.15 1.317-3.15 2.989 0 1.647 1.318 2.848 3.044 2.848.498 0 1.155-.161 1.628-.498l.347.616c-.498.355-1.334.583-1.975.583-2.146 0-3.77-1.513-3.77-3.549 0-2.077 1.697-3.675 3.876-3.675 2.171.002 3.778 1.533 3.778 3.636zm-5.027-.018c0 .651.425 1.191 1.065 1.191.666 0 1.081-.522 1.081-1.182 0-.634-.433-1.141-1.098-1.141-.623.001-1.048.508-1.048 1.132zm7.179-2.704v1.598h2.889v.896h-2.889v1.63h3.326v.896h-4.324V77.17h4.223v.895h-3.225zm9.96 5.019l-.009-4.418-1.867 3.802h-.649l-1.865-3.802v4.418h-.938v-5.913h1.183l1.951 3.928 1.942-3.928h1.175v5.913h-.923zm3.409-1.334l-.567 1.334h-1.037l2.611-5.913h1.021l2.586 5.913h-1.064l-.566-1.334h-2.984zm1.488-3.516l-1.117 2.628h2.231l-1.114-2.628zm3.997 4.85v-5.913h.999v5.913h-.999zm6.194-.903v.903h-3.555v-5.913h.996v5.01h2.559zm1.717.414c0 .328-.229.564-.531.564-.306 0-.534-.236-.534-.564 0-.322.229-.549.534-.549.303 0 .531.227.531.549zm6.119-4.537l-.583.727c-.433-.464-1.049-.751-1.648-.751-1.183 0-2.109.912-2.109 2.077 0 1.166.927 2.087 2.109 2.087.592 0 1.2-.27 1.648-.701l.591.659c-.599.591-1.452.972-2.288.972-1.734 0-3.076-1.31-3.076-3.007 0-1.682 1.359-2.975 3.109-2.975.835 0 1.671.346 2.247.912zm6.759 2.07c0 1.689-1.37 2.999-3.133 2.999-1.768 0-3.134-1.31-3.134-2.999 0-1.697 1.366-2.982 3.134-2.982 1.763 0 3.133 1.293 3.133 2.982zm-5.254 0c0 1.173.973 2.104 2.13 2.104a2.1 2.1 0 0 0 2.102-2.104 2.083 2.083 0 0 0-2.102-2.087c-1.168 0-2.13.912-2.13 2.087zm11.737 2.956l-.008-4.418-1.868 3.802h-.649l-1.865-3.802v4.418h-.938v-5.913h1.183l1.952 3.928 1.942-3.928h1.175v5.913h-.924z"/></svg>