<svg xmlns="http://www.w3.org/2000/svg" width="200" height="150" viewBox="0 0 200 150"><path fill="none" stroke="#222" stroke-width="2" stroke-miterlimit="10" d="M91.188 34.06c-4.36 0-7.89 8.532-7.89 19.075 0 8.516 7.057 15.407 15.779 15.407 9.157 0 16.569-9.516 16.569-21.276-13.519 0-24.458-5.907-24.458-13.206zm39.644 66.946V77.07l-15.384-3.851-17.159 21.183-13.61-21.183-16.568 3.851v23.936z"/><path fill="none" stroke="#222" stroke-width="2" stroke-miterlimit="10" d="M87.027 63.326c0 2.884-5.019 5.216-11.225 5.216 0-23.847 4.896-44.93 10.438-44.93 9.487-6.177 19.436-6.104 24.163.178h-.676c7.412 0 13.412 20.016 13.412 44.752-7.413 0-13.412-2.332-13.412-5.216M19.973 129.51h159"/><path d="M37.407 132.823c-.125-.273-.023-.775.285-1.481.216-.502.467-.936.49-.97.639-1.242 2.622-3.853 4.605-6.337l1.664-2.063a325.343 325.343 0 0 1 5.551-6.61c.354-.377.684-.388.843-.354a.604.604 0 0 1 .467.354c.24.558-.057 1.391-.08 1.436-.319.924-.946 1.881-1.869 2.85-.98 1.037-2.326 2.12-4.001 3.215-.672.444-1.687.945-2.405 1.288-.319.398-.638.82-.957 1.208.08.079.365.364.809.535 1.299.502 3.009-.022 4.183-.569a9.27 9.27 0 0 0 1.96-1.266c.046-.034.114-.034.148.012s.034.103-.012.148a9.79 9.79 0 0 1-2.017 1.299c-1.322.593-3.032 1.083-4.354.559a2.235 2.235 0 0 1-.684-.41c.103 1.14-.103 2.382-.616 3.602-.467 1.14-1.174 2.212-1.938 2.952-.593.559-1.151.866-1.596.866-.248-.002-.419-.139-.476-.264zm.957-2.359s-.262.456-.49.957c-.273.639-.365 1.105-.273 1.322.034.068.091.103.171.126.399.091.958-.217 1.562-.798 1.459-1.391 2.747-4.035 2.485-6.475-1.563 1.995-2.942 3.876-3.455 4.868zm6.246-8.366c-.433.535-.889 1.105-1.356 1.687.661-.33 1.448-.729 1.995-1.094 3.191-2.086 5.141-4.093 5.79-5.962.012-.011.308-.81.091-1.288a.432.432 0 0 0-.331-.239c-.239-.034-.49.137-.638.297-.273.295-2.792 3.225-5.551 6.599z"/><path fill="#222" d="M37.885 133.335c-.359 0-.613-.205-.706-.408-.158-.344-.068-.88.284-1.685.213-.496.471-.948.51-1.008.675-1.315 2.885-4.185 4.619-6.355l1.665-2.064a321.11 321.11 0 0 1 5.559-6.619c.447-.477.825-.489 1.083-.432.282.044.528.23.644.498.298.693-.082 1.641-.086 1.648-.318.927-.965 1.916-1.911 2.909-.998 1.056-2.359 2.149-4.045 3.251-.514.34-1.294.759-2.382 1.28-.117.146-.233.295-.35.444a41.81 41.81 0 0 1-.423.536c.174.144.359.253.556.328a3.04 3.04 0 0 0 1.095.186c1.12 0 2.293-.469 2.893-.748a8.978 8.978 0 0 0 1.904-1.229c.184-.138.4-.096.511.053s.096.344-.036.475a9.996 9.996 0 0 1-2.086 1.348c-1.837.823-3.408 1.02-4.554.565a2.954 2.954 0 0 1-.316-.147c.012 1.042-.213 2.139-.66 3.203-.476 1.162-1.203 2.269-1.994 3.035-.655.613-1.266.936-1.774.936zm3.717-7.054c-1.565 2.021-2.604 3.501-3.015 4.298-.008.014-.265.462-.485.945-.295.689-.309 1.03-.271 1.122.022-.015.053-.012.085-.012.299 0 .752-.271 1.243-.743 1.263-1.203 2.429-3.439 2.443-5.61zm9.135-10.835c-.129 0-.29.111-.392.222-.254.274-2.733 3.153-5.542 6.588l-.619.77c.34-.183.662-.367.926-.543 3.147-2.057 5.062-4.02 5.692-5.836l.026-.064c.07-.193.208-.74.073-1.039-.021-.047-.077-.085-.14-.095l-.024-.003z"/><path d="M48.433 125.961c-.251-.889.854-2.37 1.481-3.26a33.82 33.82 0 0 1 1.71-2.223c.034-.045.103-.045.148-.011.046.034.046.103.012.147a32.816 32.816 0 0 0-1.71 2.2c-.581.832-1.653 2.269-1.447 3.101.091.33.547.364.843.364 1.322 0 3.157-1.162 4.468-2.303.045-.034.114-.034.148.012s.034.103-.011.148c-1.356 1.151-3.066 2.348-4.605 2.348-.422.001-.934-.067-1.037-.523zm4.297-6.383a.56.56 0 0 1-.559-.559c0-.296.251-.547.559-.547.296 0 .547.251.547.547a.558.558 0 0 1-.547.559z"/><path fill="#222" d="M49.47 126.735c-.743 0-1.174-.242-1.281-.72-.265-.938.7-2.3 1.405-3.295l.116-.163a33.291 33.291 0 0 1 1.734-2.252c.081-.11.328-.15.479-.038a.341.341 0 0 1 .132.226.372.372 0 0 1-.072.273 32.892 32.892 0 0 0-1.705 2.193l-.13.186c-.54.767-1.442 2.049-1.278 2.711.017.061.12.174.601.174 1.275 0 3.116-1.207 4.304-2.241.186-.143.402-.099.513.051a.358.358 0 0 1-.034.474c-1.925 1.634-3.484 2.421-4.784 2.421zm3.26-6.907a.81.81 0 0 1-.809-.809c0-.439.363-.797.809-.797.432 0 .797.365.797.797a.804.804 0 0 1-.797.809zm0-1.105a.308.308 0 0 0-.309.297c0 .17.139.309.309.309a.308.308 0 0 0 .297-.309.304.304 0 0 0-.297-.297z"/><path d="M56.107 125.848c.023-.297.148-.65.354-1.061.376-.74.98-1.538 1.459-2.177.216-.273.387-.513.524-.707.103-.148.183-.33.125-.444-.091-.171-.467-.183-.604-.183-.057 0-.866-.045-1.368-.319a.837.837 0 0 0-.068.114c-.673 1.163-1.505 2.223-2.451 3.078-.046.034-.114.034-.148-.012s-.034-.103.012-.148c1.014-.912 1.755-1.972 2.405-3.032.023-.045.068-.113.068-.125a.781.781 0 0 1-.308-.775.393.393 0 0 1 .388-.353c.239 0 .331.147.365.239.068.205.011.456-.171.832.365.205 1.003.284 1.265.296.103 0 .649-.012.798.285.091.171.045.388-.137.661-.137.205-.319.444-.524.718-.479.639-1.071 1.414-1.448 2.144-.194.387-.308.718-.331.991-.057.559.239.832.821.832.285 0 .65-.103 1.071-.251.821-.284 1.812-.764 2.781-1.356.046-.034.103-.022.137.023.034.057.012.113-.034.147-.98.604-1.983 1.095-2.815 1.38-.501.171-.877.273-1.265.262-.65-.022-.958-.467-.901-1.059zm.41-5.199c.183-.376.171-.547.137-.627a.18.18 0 0 0-.171-.113c-.091.011-.137.079-.159.193-.034.16.045.445.193.547z"/><path fill="#222" d="M57.067 127.158l-.067-.001c-.368-.013-.67-.143-.875-.376-.212-.241-.305-.572-.268-.958.024-.311.148-.688.379-1.148.375-.739.966-1.525 1.44-2.158l.042-.057c.217-.273.385-.509.52-.7.082-.118.1-.194.099-.212-.001.027-.115-.021-.373-.021-.007 0-.705-.024-1.268-.248-.694 1.181-1.538 2.23-2.451 3.057-.197.15-.405.102-.517-.048a.357.357 0 0 1 .036-.475c1.041-.937 1.764-2.003 2.335-2.932a1.022 1.022 0 0 1-.239-.865.64.64 0 0 1 .634-.562c.281 0 .505.15.599.402.087.261.026.536-.075.792.308.107.716.163.946.173h.001c.662 0 .912.23 1.009.424.133.249.083.558-.152.911-.12.18-.275.387-.449.618l-.164.219c-.468.623-.999 1.33-1.345 2-.182.362-.284.665-.304.897-.02.192.01.33.086.415.109.121.324.146.485.146.28 0 .675-.127.988-.236.823-.285 1.793-.759 2.734-1.334l.06-.037.127-.02c.11 0 .212.052.28.144.111.182.069.382-.085.497-1.01.624-2.027 1.123-2.884 1.416-.511.176-.886.277-1.284.277z"/><path d="M59.509 126.588c.022-.034 1.767-1.755 2.371-2.428 1.983-2.211 2.223-2.906 2.177-3.146a.184.184 0 0 0-.114-.114c-.057-.022-.08-.08-.068-.137.023-.057.08-.08.137-.057a.347.347 0 0 1 .239.273c.057.273-.148.74-.639 1.413-.25.365-.581.775-.991 1.242.103-.091.205-.171.319-.262 1.083-.912 2.063-1.596 2.895-2.063.502-.273.958-.467 1.356-.569.684-.171 1.459-.194 1.699.559.137.433.011 1.025-.331 1.755a8.66 8.66 0 0 1-.331.627c.068-.068.137-.148.205-.217.843-.843 1.63-1.504 2.336-1.96.889-.57 1.676-.764 2.303-.695.068.011.559.057.752.49.251.604-.239 1.618-1.47 3.009-.866.991-.912 1.459-.798 1.664.319.581 1.63.183 2.097-.022.604-.263 1.573-.821 2.77-1.961.045-.046.114-.046.148 0 .034.034.034.103 0 .148-1.231 1.174-2.234 1.755-2.85 2.006-.661.273-1.949.639-2.348-.068-.103-.193-.08-.433.034-.729.103-.273.399-.718.798-1.174.649-.741 1.094-1.368 1.311-1.881.171-.388.205-.684.114-.912-.148-.342-.57-.388-.582-.388-.604-.068-1.322.148-2.177.685-.684.444-1.459 1.094-2.291 1.938-.387.388-.752.786-1.083 1.163-.376.433-.9 1.116-1.471 1.801l-.159-.126c.011-.011.786-.945 1.47-1.812.456-.615.798-1.185 1.037-1.675.319-.673.422-1.231.308-1.607-.103-.354-.387-.456-.387-.456-.958-.319-2.815.615-5.232 2.633a34.088 34.088 0 0 0-2.006 1.801c-.775.798-1.39 1.38-1.402 1.391l-.146-.139z"/><path fill="#222" d="M59.657 127.064l-.473-.437.116-.178c.021-.031.021-.031.425-.437.541-.542 1.546-1.551 1.968-2.021 1.836-2.047 2.087-2.704 2.115-2.88a.366.366 0 0 1-.18-.398c.068-.18.196-.267.338-.267l.139.027a.59.59 0 0 1 .391.464c.06.286-.075.681-.421 1.22.575-.422 1.12-.776 1.636-1.066.53-.289 1.006-.488 1.417-.594.287-.071.535-.106.761-.106.805 0 1.118.452 1.238.831.113.356.082.794-.095 1.325a12.621 12.621 0 0 1 1.601-1.254c.871-.56 1.742-.815 2.466-.733.467.064.798.29.953.637.299.72-.196 1.79-1.512 3.276-.925 1.059-.773 1.364-.766 1.377.079.144.309.174.488.174.473 0 1.051-.199 1.29-.304.579-.252 1.516-.787 2.698-1.913.136-.139.4-.131.521.031.097.094.108.303 0 .447-1.403 1.343-2.453 1.883-2.956 2.088-.261.108-.937.36-1.555.36-.663 0-.967-.292-1.105-.537-.179-.337-.075-.699.019-.942.117-.312.432-.779.843-1.249.653-.745 1.068-1.338 1.268-1.813.14-.317.177-.559.112-.722-.084-.194-.367-.231-.37-.231a1.728 1.728 0 0 0-.2-.012c-.513 0-1.127.222-1.824.659-.685.445-1.441 1.085-2.246 1.901a24.07 24.07 0 0 0-1.073 1.152c-.202.231-.447.537-.719.876-.233.29-.486.605-.748.92l-.156.188-.576-.456.208-.198c.027-.032.78-.942 1.447-1.787.413-.557.754-1.107 1.009-1.629.285-.601.39-1.107.293-1.426a.447.447 0 0 0-.233-.293 1.062 1.062 0 0 0-.328-.047c-.968 0-2.623.937-4.659 2.637a34.567 34.567 0 0 0-1.992 1.787 49.247 49.247 0 0 1-1.408 1.396l-.165.157z"/><path d="M86.749 124.115c-1.105.991-2.963 2.473-4.536 2.473-.445 0-1.174-.125-1.22-.695-.023-.25.114-.547.41-.9-.479.388-.946.741-1.425 1.037-.764.479-1.425.707-2.018.707-.958 0-1.698-.559-1.835-1.505-.091-.809.456-1.721 1.607-2.701.741-.627 1.494-1.117 2.257-1.447.741-.331 1.436-.49 2.085-.49.308 0 .593.034.867.114.045.011.798.216.946.877.125.559-.205 1.254-.98 2.075.034-.023.068-.046.091-.068a23.06 23.06 0 0 1 2.052-1.334c.046-.034.114-.012.137.034.034.046.012.114-.034.137-.011.012-1.037.604-2.029 1.322-.581.434-1.049.82-1.368 1.151-.388.41-.582.741-.559.98.023.398.672.501 1.003.501 1.356 0 3.101-1.22 4.4-2.428.045-.034.114-.034.148.012s.035.102.001.148zm-4.924.262c1.732-1.437 1.972-2.279 1.869-2.747-.125-.547-.798-.729-.809-.729a3.104 3.104 0 0 0-.81-.103c-1.265 0-2.804.684-4.206 1.893-.604.501-1.038 1.003-1.288 1.459-.205.376-.285.729-.251 1.06.091.82.775 1.322 1.63 1.322 1.278-.001 2.714-1.198 3.865-2.155z"/><path fill="#222" d="M77.961 126.986c-1.114 0-1.932-.675-2.083-1.719-.102-.902.468-1.885 1.692-2.928.776-.656 1.557-1.156 2.32-1.486 1.134-.507 2.261-.637 3.122-.387.001 0 .934.231 1.12 1.062.076.338.021.702-.169 1.102.376-.246.739-.471.941-.57l-.003-.004.066-.05.134-.017c.131 0 .253.075.31.19.036.041.056.145.032.243a.344.344 0 0 1-.163.219l-.086.053c-.274.165-1.108.667-1.924 1.257-.605.452-1.042.819-1.334 1.123-.476.503-.495.727-.49.783.009.161.405.274.754.274 1.059 0 2.64-.883 4.229-2.36.201-.157.407-.104.519.045.1.134.1.313 0 .447-1.911 1.72-3.493 2.573-4.737 2.573-.674 0-1.415-.243-1.469-.926-.003-.03-.004-.062-.003-.094-.222.16-.428.299-.631.424-.796.502-1.499.746-2.147.746zm4.115-5.938c-1.219 0-2.692.668-4.042 1.832-.564.468-.989.947-1.232 1.39-.176.323-.251.631-.222.914.074.666.617 1.098 1.381 1.098 1.182 0 2.574-1.157 3.693-2.087 1.729-1.434 1.867-2.188 1.796-2.511-.089-.388-.614-.538-.62-.539a2.813 2.813 0 0 0-.754-.097z"/><path d="M92.07 122.588c-.217-.114-.342-.194-.342-.206-.046-.022-.057-.091-.034-.137.034-.045.103-.057.148-.022 0 0 .137.091.376.205.159-.171.354-.342.535-.524 1.026-.991 2.144-1.55 3.181-1.687 1.254-.16 2.508.718 1.801 1.915-.536.911-1.801 1.299-2.77 1.254a6.927 6.927 0 0 1-2.337-.536c-.137-.057-.263-.114-.365-.159-.706.672-1.664 2.815-.376 3.521 1.003.57 3.078.023 3.728-.239 1.22-.501 2.291-1.049 3.738-2.291a.107.107 0 0 1 .148.012c.034.045.022.103-.012.147-1.493 1.266-2.553 1.802-3.807 2.314-1.025.376-2.872.786-3.909.228-1.378-.752-.535-2.929.297-3.795zm.639.079a6.867 6.867 0 0 0 2.257.513c1.025.046 2.177-.455 2.599-1.162.581-.98-.502-1.767-1.596-1.607-.878.126-1.812.456-3.089 1.642-.148.148-.319.308-.479.479l.308.135z"/><path fill="#222" d="M93.103 126.906c-.586 0-1.073-.102-1.447-.304-.465-.253-.754-.673-.838-1.215-.138-.892.306-2.018.863-2.73a.8.8 0 0 1-.12-.087.361.361 0 0 1-.091-.436c.156-.218.372-.226.522-.112 0 0 .063.04.175.1l.185-.178c.075-.071.151-.143.225-.218 1.037-1.001 2.185-1.607 3.325-1.758.908-.112 1.772.251 2.122.864.244.427.218.934-.073 1.426-.592 1.006-1.963 1.417-2.997 1.377a7.162 7.162 0 0 1-2.63-.646c-.432.494-.905 1.494-.807 2.251.046.35.207.595.492.752.257.146.622.219 1.086.219.919 0 1.977-.289 2.427-.471 1.241-.51 2.289-1.064 3.669-2.249.174-.133.36-.103.488.024a.376.376 0 0 1 .01.476c-1.507 1.285-2.571 1.847-3.911 2.395-.339.125-1.507.52-2.675.52zm-.27-4.458a6.527 6.527 0 0 0 2.145.481l.12.003c.914 0 1.903-.458 2.252-1.043.153-.258.168-.498.046-.714-.213-.372-.8-.602-1.391-.519-.772.111-1.664.379-2.955 1.578l-.151.148-.066.066z"/><path d="M98.994 126.258c-.433-.49-.148-1.3-.137-1.334.57-1.618 1.893-3.716 2.827-5.141a50.367 50.367 0 0 1 1.926-2.701c0-.012.524-.649 1.163-1.197.388-.33.729-.569 1.037-.695.41-.182.752-.182 1.015-.011.217.137.33.342.354.615.057.673-.514 1.596-.992 2.269a15.39 15.39 0 0 1-2.154 2.359c-.866.764-2.599 2.052-4.411 3.282-.217.445-.41.878-.569 1.3 0 0-.251.718.103 1.117.353.388 1.003.376 1.606.193 1.904-.569 3.112-1.265 4.594-2.405.046-.034.114-.022.148.012.034.046.034.114-.012.148-1.516 1.151-2.735 1.892-4.685 2.45a2.947 2.947 0 0 1-.844.114c-.456.001-.764-.136-.969-.375zm2.861-6.361c-.639.969-1.413 2.211-2.04 3.431 1.664-1.151 3.282-2.359 4.08-3.066a15.165 15.165 0 0 0 2.132-2.325c.649-.9.98-1.652.945-2.12a.552.552 0 0 0-.262-.467c-.479-.308-1.242.205-1.801.684-.615.536-1.117 1.151-1.14 1.174a57.486 57.486 0 0 0-1.914 2.689z"/><path fill="#222" d="M99.963 126.884c-.505 0-.895-.156-1.159-.463-.497-.563-.24-1.413-.184-1.577.577-1.638 1.906-3.751 2.855-5.197a49.24 49.24 0 0 1 1.95-2.733l.007.006c.265-.398 1.167-1.215 1.178-1.224.439-.374.79-.608 1.105-.737.472-.21.91-.207 1.246.011.277.176.436.446.466.804.05.596-.279 1.369-1.037 2.435a15.62 15.62 0 0 1-2.193 2.402c-.859.759-2.575 2.036-4.38 3.264a14.86 14.86 0 0 0-.531 1.219c-.053.156-.152.628.056.863.235.259.75.302 1.347.12 1.974-.59 3.149-1.313 4.514-2.364a.377.377 0 0 1 .478.033.391.391 0 0 1 .097.269.338.338 0 0 1-.136.257c-1.505 1.144-2.768 1.918-4.765 2.49a3.25 3.25 0 0 1-.914.122zm6.412-11.377c-.3 0-.763.254-1.302.716-.347.302-.711.676-1.082 1.111l-.044.05a61.413 61.413 0 0 0-1.885 2.653 42.486 42.486 0 0 0-1.524 2.479c1.366-.971 2.566-1.887 3.191-2.441a14.873 14.873 0 0 0 2.096-2.285c.602-.833.929-1.546.898-1.954-.007-.134-.05-.212-.148-.275a.34.34 0 0 0-.2-.054z"/><path d="M106.156 122.588c-.217-.114-.342-.194-.342-.206-.046-.022-.057-.091-.034-.137.034-.045.103-.057.148-.022 0 0 .137.091.376.205.159-.171.354-.342.535-.524 1.026-.991 2.144-1.55 3.181-1.687 1.254-.16 2.508.718 1.801 1.915-.536.911-1.801 1.299-2.77 1.254a6.927 6.927 0 0 1-2.337-.536c-.137-.057-.263-.114-.365-.159-.706.672-1.664 2.815-.376 3.521 1.003.57 3.078.023 3.728-.239 1.22-.501 2.291-1.049 3.738-2.291a.107.107 0 0 1 .148.012c.034.045.022.103-.012.147-1.493 1.266-2.553 1.802-3.807 2.314-1.025.376-2.872.786-3.909.228-1.379-.752-.535-2.929.297-3.795zm.639.079a6.867 6.867 0 0 0 2.257.513c1.025.046 2.177-.455 2.599-1.162.581-.98-.502-1.767-1.596-1.607-.878.126-1.812.456-3.089 1.642-.148.148-.319.308-.479.479l.308.135z"/><path fill="#222" d="M107.188 126.906c-.586 0-1.073-.102-1.446-.304-.465-.253-.755-.673-.839-1.215-.138-.892.307-2.018.863-2.73a.772.772 0 0 1-.118-.086.334.334 0 0 1-.121-.195.37.37 0 0 1 .028-.241c.157-.218.375-.224.522-.112 0 0 .063.04.176.1l.184-.178c.075-.071.151-.143.225-.218 1.037-1.001 2.186-1.607 3.326-1.758.898-.11 1.771.251 2.121.864.244.427.218.934-.073 1.426-.592 1.006-1.97 1.417-2.996 1.377a7.175 7.175 0 0 1-2.631-.646c-.432.494-.905 1.494-.807 2.251.045.35.206.595.491.752.257.146.622.219 1.087.219.919 0 1.977-.289 2.427-.471 1.241-.51 2.289-1.064 3.669-2.249.178-.134.361-.103.488.024a.377.377 0 0 1 .011.476c-1.508 1.285-2.571 1.847-3.911 2.395-.339.124-1.508.519-2.676.519zm-.269-4.458a6.527 6.527 0 0 0 2.145.481l.12.003c.914 0 1.903-.458 2.252-1.043.153-.258.169-.498.046-.714-.213-.374-.809-.6-1.391-.519-.772.111-1.664.379-2.955 1.578l-.15.148-.067.066z"/><path d="M114.335 126.531c-.81-.148-1.276-.524-1.368-1.083-.114-.706.331-1.687 1.186-2.633.844-.946 1.927-1.652 2.884-1.881.468-.103.854-.137 1.151-.091.273.045.467.159.604.33.25.331.147.787.022 1.015-.034.057-.092.068-.148.046-.046-.023-.057-.092-.034-.137.103-.183.183-.548-.012-.798-.216-.297-.752-.354-1.538-.16-.912.217-1.961.9-2.781 1.812-.798.889-1.231 1.835-1.129 2.462.183 1.163 2.291.958 2.314.958.011 0 .798-.046 1.823-.309.98-.25 2.462-.843 3.887-2.04.046-.034.114-.034.148.012s.034.114-.012.148a11.2 11.2 0 0 1-2.108 1.379 9.561 9.561 0 0 1-1.869.707c-1.026.262-1.79.308-1.858.308-.034 0-.182.011-.398.011a4.744 4.744 0 0 1-.764-.056z"/><path fill="#222" d="M115.099 126.838c-.286 0-.557-.021-.804-.06-1.162-.213-1.497-.819-1.575-1.289-.127-.788.327-1.823 1.247-2.842.877-.983 2.004-1.716 3.012-1.956.522-.114.927-.146 1.247-.095.324.053.579.194.761.42.303.4.235.949.047 1.292a.364.364 0 0 1-.314.187l-.145-.028a.358.358 0 0 1-.166-.48c.076-.136.127-.389.015-.533-.107-.146-.353-.176-.54-.176-.207 0-.456.035-.741.105-.858.203-1.875.869-2.655 1.736-.738.822-1.157 1.707-1.067 2.255.107.688 1.222.762 1.695.762.177 0 .306-.01.342-.012.027-.002.799-.049 1.791-.303.763-.194 2.267-.711 3.788-1.989.183-.137.399-.095.51.054a.355.355 0 0 1-.062.498 11.447 11.447 0 0 1-2.146 1.402 9.759 9.759 0 0 1-1.92.726c-1.021.261-1.807.315-1.919.315-.117.005-.241.011-.401.011z"/><path d="M125.476 120.49c-.354 0-1.927-.08-2.485-.137-.057-.012-.103-.058-.103-.114 0-.046.046-.091.103-.091.023 0 .068 0 .194.011.82.068 1.618.114 2.394.137 1.539-2.883 2.655-4.775 3.328-5.642.308-.399.434-.49.615-.41a.206.206 0 0 1 .092.103c.068.159-.08.627-.137.764-.524 1.367-1.585 2.838-2.371 3.83a30.554 30.554 0 0 1-1.151 1.367c.866.012 1.71.012 2.52-.022a.103.103 0 1 1 0 .206c-.49.022-1.004.034-1.527.034-.388 0-.775-.012-1.175-.022-.068.068-.113.125-.159.171-1.186 2.233-2.177 4.217-2.2 4.251 0 0-.456.866-.137 1.312.194.273.649.342 1.334.228 1.903-.319 3.921-2.018 4.49-2.53.046-.034.114-.034.148.011a.108.108 0 0 1-.011.148 14.956 14.956 0 0 1-2.098 1.562c-.9.548-1.744.89-2.496 1.015a3.598 3.598 0 0 1-.581.057c-.456 0-.775-.125-.946-.376-.399-.535.079-1.459.113-1.516a564.65 564.65 0 0 1 2.109-3.989c-.034.022-3.591 2.872-4.013 3.34-.079.079-.147.034-.171 0-.022-.034-.034-.103.034-.16 1.63-1.44 4.287-3.538 4.287-3.538zm1.47-1.676c.832-1.037 1.994-2.599 2.438-4.046.058-.205.058-.309.046-.331s-.034-.022-.068 0c-.057.046-.137.137-.297.342-.729.946-1.938 3.089-3.055 5.152.263-.295.594-.683.936-1.117z"/><path fill="#222" d="M124.062 126.975c-.546 0-.934-.163-1.153-.485-.514-.688.1-1.774.106-1.785h-.001c-.002 0 .074-.154 1.536-2.908-1.086.878-2.769 2.256-3.039 2.555a.381.381 0 0 1-.275.127.356.356 0 0 1-.287-.152.37.37 0 0 1 .079-.493c1.174-1.033 2.898-2.426 3.761-3.115a44.54 44.54 0 0 1-1.824-.114c-.2-.04-.327-.191-.327-.363 0-.185.161-.341.353-.341.011-.003.072-.001.216.012.762.063 1.51.107 2.225.131 1.507-2.815 2.609-4.679 3.278-5.54.303-.394.564-.642.913-.485a.446.446 0 0 1 .223.237c.13.302-.135.946-.137.953-.42 1.095-1.23 2.405-2.406 3.89-.312.391-.586.718-.801.968.67.003 1.327-.002 1.962-.028h.001a.353.353 0 1 1 .009.706c-.805.037-1.688.039-2.59.015h-.007l-.015.017-.044.047a241.941 241.941 0 0 0-1.984 3.831c-.132.258-.209.406-.216.416-.109.213-.312.784-.14 1.024.104.146.365.176.566.176.15 0 .326-.017.523-.05 1.897-.317 3.968-2.112 4.364-2.469.195-.149.401-.102.515.045a.358.358 0 0 1-.033.477 15.337 15.337 0 0 1-2.144 1.598c-.928.564-1.798.917-2.586 1.049a4.574 4.574 0 0 1-.621.054zm4.689-11.307c-.291.449-.64 1.024-1.047 1.731a13.4 13.4 0 0 0 1.047-1.731z"/><path d="M131.202 125.848c.022-.297.148-.65.354-1.061.376-.74.98-1.538 1.459-2.177.217-.273.388-.513.524-.707.103-.148.182-.33.125-.444-.091-.171-.467-.183-.604-.183-.058 0-.867-.045-1.368-.319-.022.034-.046.068-.068.114-.673 1.163-1.505 2.223-2.451 3.078-.045.034-.113.034-.147-.012s-.034-.103.011-.148c1.015-.912 1.756-1.972 2.405-3.032.022-.045.068-.113.068-.125a.78.78 0 0 1-.308-.775.393.393 0 0 1 .388-.353c.239 0 .33.147.364.239.068.205.012.456-.171.832.365.205 1.003.284 1.266.296.103 0 .649-.012.798.285.091.171.046.388-.137.661-.137.205-.319.444-.524.718-.479.639-1.071 1.414-1.447 2.144-.194.387-.309.718-.331.991-.057.559.239.832.82.832.285 0 .65-.103 1.072-.251.82-.284 1.812-.764 2.781-1.356.045-.034.103-.022.137.023.034.057.011.113-.034.147-.98.604-1.983 1.095-2.815 1.38-.502.171-.878.273-1.266.262-.65-.022-.957-.467-.901-1.059zm.41-5.199c.183-.376.171-.547.137-.627a.177.177 0 0 0-.171-.113c-.091.011-.137.079-.159.193-.034.16.045.445.193.547z"/><path fill="#222" d="M132.163 127.158l-.068-.001c-.367-.013-.669-.143-.873-.375-.213-.242-.306-.573-.269-.958.023-.313.145-.68.379-1.148.373-.735.961-1.519 1.433-2.148l.05-.066c.218-.274.386-.511.521-.701.081-.118.099-.194.098-.212.001.03-.114-.021-.372-.021-.008 0-.705-.024-1.269-.248-.694 1.181-1.538 2.23-2.451 3.057-.189.149-.404.103-.516-.048a.359.359 0 0 1 .032-.473c1.043-.938 1.766-2.005 2.338-2.934a1.02 1.02 0 0 1-.24-.865.64.64 0 0 1 .635-.562c.281 0 .505.15.599.402.075.224.053.468-.075.792.308.107.717.163.946.173h.002c.662 0 .912.23 1.009.424.133.25.083.559-.152.911-.12.18-.274.387-.449.618l-.171.228c-.466.621-.993 1.324-1.337 1.991-.183.363-.285.666-.305.897-.02.192.01.331.087.416.108.12.323.146.484.146.28 0 .676-.127.989-.236.821-.285 1.792-.759 2.733-1.334l.061-.037.127-.02c.11 0 .213.052.28.144.11.18.069.38-.083.496-1.013.626-2.03 1.124-2.886 1.417-.514.174-.889.275-1.287.275z"/><path d="M137.909 126.646c-.639-.034-1.105-.251-1.391-.639-.49-.673-.251-1.607-.251-1.642.239-.923.924-1.721 1.448-2.233.627-.604 1.391-1.141 2.04-1.437.559-.239 1.06-.376 1.527-.41.388-.023.764.011 1.083.125.547.194.786.524.798.536.022.045.022.091 0 .125.103.023.193.08.262.16.205.228.08.729.068.774-.091.331-.354.81-.729 1.346-.183.25-.388.513-.604.752 1.037 1.06 2.735.923 4.046-.114a.109.109 0 0 1 .148.023c.034.045.034.103-.012.137-.649.501-1.356.809-2.074.877-.844.08-1.688-.171-2.245-.764a11.23 11.23 0 0 1-.639.65c-.57.523-1.163.969-1.722 1.265-.592.319-1.162.468-1.641.468h-.112zm1.927-5.757c-1.117.49-2.964 1.961-3.363 3.534 0 0-.216.877.217 1.47.251.331.661.524 1.231.548.911.057 2.12-.559 3.316-1.676.239-.217.456-.444.673-.684a1.737 1.737 0 0 1-.205-.502 2.829 2.829 0 0 1 0-1.242c.079-.331.205-.627.388-.844.193-.239.444-.388.706-.434.068-.011.126-.011.183-.011a1.527 1.527 0 0 0-.695-.456 2.82 2.82 0 0 0-.752-.114c-.491.001-1.084.137-1.699.411zm-.434-1.47c.012-.046.057-.092.114-.08 1.755.228 3.738-.41 5.186-1.345.058-.034.114-.023.148.022.034.057.012.114-.034.148-1.652 1.049-3.487 1.573-5.334 1.379a.104.104 0 0 1-.08-.124zm2.496 2.963c-.103.49-.08 1.095.148 1.539.639-.741 1.117-1.459 1.254-1.983.022-.113.091-.433-.034-.581-.058-.068-.16-.103-.285-.103-.524.012-.922.422-1.083 1.128z"/><path fill="#222" d="M138.023 126.896h-.114c-.728-.039-1.259-.288-1.592-.74-.329-.451-.436-1.092-.301-1.805.209-.819.719-1.61 1.524-2.397.645-.622 1.434-1.177 2.111-1.485.597-.256 1.122-.396 1.612-.432.453-.032.852.019 1.186.139.5.178.779.456.902.606l.035.054a.348.348 0 0 1 .027.067.762.762 0 0 1 .201.167c.273.304.161.842.12 1-.124.452-.485 1.024-.767 1.426-.162.222-.313.416-.461.59.904.748 2.394.617 3.543-.292a.363.363 0 0 1 .504.07.34.34 0 0 1-.063.487c-.691.533-1.453.854-2.2.926-.864.089-1.679-.158-2.258-.656-.156.165-.316.323-.478.476-.612.562-1.226 1.013-1.776 1.304-.598.323-1.207.495-1.755.495zm3.511-6.167c-.466 0-1.033.138-1.597.389-1.118.49-2.858 1.933-3.223 3.367-.001.005-.181.771.177 1.261.208.274.559.426 1.04.445.038.003.072.004.106.004.828 0 1.932-.588 3.028-1.612a8.82 8.82 0 0 0 .539-.538 2.201 2.201 0 0 1-.144-.405 3.086 3.086 0 0 1-.001-1.356c.095-.396.243-.716.44-.95a1.48 1.48 0 0 1 .523-.413 1.128 1.128 0 0 0-.209-.086 2.48 2.48 0 0 0-.679-.106zm1.45.775c-.403.011-.71.351-.842.934-.07.333-.07.684-.006.984.498-.622.822-1.163.922-1.548.053-.264.026-.34.016-.357-.003 0-.03-.013-.09-.013zm-2.74-1.67c-.262 0-.524-.014-.788-.041a.359.359 0 0 1-.247-.155c-.052-.078-.07-.177-.052-.27a.357.357 0 0 1 .341-.281l.068.007c.208.026.445.041.687.041 1.391 0 3.004-.505 4.313-1.351.184-.109.375-.063.484.083.111.182.07.383-.085.498-1.517.965-3.145 1.469-4.721 1.469z"/><path d="M144.322 126.485l.854-1.162c.297-.399.627-.878.946-1.356 1.55-2.325 1.573-2.896 1.505-3.032-.023-.057 0-.114.045-.137.058-.022.114 0 .137.046.068.137.103.433-.353 1.322-.24.456-.582 1.025-1.015 1.698.159-.171.33-.342.501-.513.912-.89 1.801-1.562 2.645-2.007 1.061-.559 2.063-.752 2.976-.569.421.091.684.284.786.569.239.661-.536 1.573-.559 1.607 0 .012-.444.536-.854 1.163-.536.82-.764 1.459-.673 1.835.034.159.137.273.308.342.479.193 1.391-.16 2.645-1.037.969-.673 1.801-1.414 1.801-1.425.046-.034.114-.034.148.011a.107.107 0 0 1-.012.148s-.844.753-1.812 1.437c-1.071.741-1.903 1.117-2.473 1.117a.941.941 0 0 1-.377-.068.678.678 0 0 1-.433-.479c-.103-.444.137-1.105.707-1.994.41-.627.877-1.174.877-1.174s.707-.866.513-1.414c-.068-.216-.284-.364-.638-.433-1.961-.399-4.035 1.151-5.426 2.508a20.57 20.57 0 0 0-1.744 1.96 25.007 25.007 0 0 0-.854 1.163l-.171-.126z"/><path fill="#222" d="M144.743 127.106l-.771-.568 1.003-1.362c.265-.357.581-.811.939-1.348 1.52-2.279 1.49-2.755 1.482-2.801a.354.354 0 0 1 .164-.453l.053-.026.104-.009c.137 0 .258.074.316.194.106.213.147.564-.354 1.547l-.067.125a10.605 10.605 0 0 1 1.859-1.281c1.109-.585 2.175-.789 3.141-.594.637.138.88.473.973.729.234.647-.264 1.423-.582 1.827l-.001-.001c-.02.03-.049.066-.089.117-.139.176-.465.586-.768 1.049-.701 1.073-.666 1.526-.639 1.64.013.061.04.121.157.168a.55.55 0 0 0 .202.034c.267 0 .908-.136 2.206-1.044a19.775 19.775 0 0 0 1.694-1.328v-.018l.101-.074a.366.366 0 0 1 .497.06.36.36 0 0 1-.034.477c-.045.041-.876.78-1.845 1.464-1.459 1.009-2.49 1.338-3.095 1.073a.917.917 0 0 1-.574-.647c-.121-.522.114-1.217.739-2.189.415-.635.877-1.179.896-1.201.198-.243.578-.856.468-1.168-.052-.164-.273-.237-.45-.271a3.02 3.02 0 0 0-.596-.059c-1.689 0-3.438 1.359-4.607 2.5a19.904 19.904 0 0 0-1.722 1.936c-.373.484-.696.932-.802 1.083v.419z"/><path d="M155.316 125.961c-.25-.889.855-2.37 1.482-3.26a33.61 33.61 0 0 1 1.709-2.223c.034-.045.104-.045.148-.011.046.034.046.103.012.147-.012.012-.89 1.037-1.71 2.2-.581.832-1.652 2.269-1.447 3.101.091.33.547.364.843.364 1.322 0 3.158-1.162 4.469-2.303.046-.034.114-.034.148.012s.034.103-.012.148c-1.356 1.151-3.066 2.348-4.605 2.348-.42.001-.934-.067-1.037-.523zm4.298-6.383a.56.56 0 0 1-.559-.559c0-.296.251-.547.559-.547.296 0 .547.251.547.547a.558.558 0 0 1-.547.559z"/><path fill="#222" d="M156.354 126.735c-.742 0-1.174-.242-1.281-.72-.264-.938.701-2.3 1.406-3.294l.116-.164a33.929 33.929 0 0 1 1.729-2.248c.087-.116.333-.158.484-.041a.34.34 0 0 1 .131.225.371.371 0 0 1-.071.273 32.443 32.443 0 0 0-1.705 2.193l-.13.185c-.539.767-1.442 2.049-1.278 2.712.03.109.243.174.6.174 1.276 0 3.116-1.207 4.305-2.241.189-.144.402-.099.513.051a.358.358 0 0 1-.035.475c-1.925 1.633-3.485 2.42-4.784 2.42zm3.26-6.907a.81.81 0 0 1-.809-.809c0-.439.362-.797.809-.797a.803.803 0 0 1 0 1.606zm0-1.105a.308.308 0 0 0-.309.297c0 .17.139.309.309.309a.308.308 0 0 0 .297-.309.304.304 0 0 0-.297-.297z"/><path d="M161.931 126.531c-.81-.148-1.276-.524-1.368-1.083-.114-.706.331-1.687 1.186-2.633.844-.946 1.927-1.652 2.884-1.881.468-.103.854-.137 1.151-.091.273.045.467.159.604.33.25.331.147.787.022 1.015-.034.057-.092.068-.148.046-.046-.023-.057-.092-.034-.137.103-.183.183-.548-.012-.798-.216-.297-.752-.354-1.538-.16-.912.217-1.961.9-2.781 1.812-.798.889-1.231 1.835-1.129 2.462.183 1.163 2.291.958 2.314.958.011 0 .798-.046 1.823-.309.98-.25 2.462-.843 3.887-2.04.046-.034.114-.034.148.012s.034.114-.012.148a11.2 11.2 0 0 1-2.108 1.379 9.561 9.561 0 0 1-1.869.707c-1.026.262-1.79.308-1.858.308-.034 0-.182.011-.398.011a4.736 4.736 0 0 1-.764-.056z"/><path fill="#222" d="M162.694 126.838c-.286 0-.557-.021-.804-.06-1.162-.213-1.497-.819-1.575-1.289-.127-.788.327-1.823 1.247-2.842.877-.983 2.004-1.716 3.012-1.956.522-.114.926-.146 1.247-.095.324.053.579.194.761.42.303.4.235.949.047 1.292a.364.364 0 0 1-.314.187l-.145-.028a.358.358 0 0 1-.166-.48c.076-.136.127-.389.015-.533-.107-.146-.353-.176-.54-.176-.207 0-.456.035-.741.105-.858.203-1.875.869-2.655 1.736-.738.822-1.157 1.707-1.067 2.255.107.688 1.222.762 1.695.762.177 0 .306-.01.342-.012.027-.002.799-.049 1.791-.303.763-.194 2.267-.711 3.788-1.989.183-.137.399-.095.51.054a.355.355 0 0 1-.062.498 11.447 11.447 0 0 1-2.146 1.402 9.759 9.759 0 0 1-1.92.726c-1.021.261-1.807.315-1.919.315-.116.005-.241.011-.401.011z"/><path d="M179.159 124.115c-1.105.991-2.964 2.473-4.537 2.473-.444 0-1.174-.125-1.22-.695-.022-.25.114-.547.411-.9-.479.388-.946.741-1.425 1.037-.764.479-1.425.707-2.018.707-.958 0-1.698-.559-1.836-1.505-.091-.809.456-1.721 1.607-2.701.741-.627 1.493-1.117 2.257-1.447.741-.331 1.437-.49 2.086-.49.308 0 .593.034.866.114.046.011.798.216.946.877.125.559-.205 1.254-.98 2.075.034-.023.068-.046.092-.068a22.736 22.736 0 0 1 2.052-1.334c.045-.034.113-.012.137.034.034.046.011.114-.034.137-.012.012-1.038.604-2.029 1.322-.581.434-1.049.82-1.368 1.151-.387.41-.581.741-.559.98.023.398.673.501 1.004.501 1.356 0 3.1-1.22 4.399-2.428.046-.034.114-.034.148.012s.035.102.001.148zm-4.925.262c1.733-1.437 1.973-2.279 1.87-2.747-.126-.547-.798-.729-.81-.729a3.104 3.104 0 0 0-.81-.103c-1.265 0-2.804.684-4.206 1.893-.604.501-1.037 1.003-1.288 1.459-.205.376-.284.729-.25 1.06.091.82.774 1.322 1.63 1.322 1.277-.001 2.714-1.198 3.864-2.155z"/><path fill="#222" d="M170.371 126.986c-1.113 0-1.932-.675-2.083-1.719-.102-.902.468-1.885 1.692-2.928.776-.656 1.557-1.156 2.319-1.486 1.136-.508 2.262-.637 3.122-.387.001 0 .933.229 1.12 1.062.075.338.02.703-.169 1.102.374-.245.736-.47.939-.569l-.003-.004.067-.051.135-.017c.129 0 .251.073.309.188.037.044.058.146.034.244a.344.344 0 0 1-.162.221l-.083.05c-.274.165-1.108.666-1.929 1.26-.604.451-1.042.819-1.335 1.123-.475.504-.495.727-.489.783.01.161.406.274.755.274 1.524 0 3.466-1.651 4.229-2.361.203-.156.408-.103.519.046.1.134.1.313 0 .447-1.91 1.72-3.493 2.573-4.737 2.573-.674 0-1.414-.243-1.469-.925a.742.742 0 0 1-.003-.095c-.223.16-.429.299-.63.424-.796.501-1.499.745-2.148.745zm4.114-5.938c-1.219 0-2.692.668-4.043 1.832-.563.468-.988.948-1.232 1.39-.175.322-.249.63-.22.914.073.666.615 1.098 1.381 1.098 1.184 0 2.577-1.159 3.696-2.091 1.726-1.43 1.863-2.185 1.793-2.507-.09-.388-.614-.538-.62-.539a2.815 2.815 0 0 0-.755-.097z"/><path fill="#05ABD9" d="M23.094 116.312l8.39 8.39-2.121 2.121-8.39-8.39z"/><path fill="#05ABD9" d="M29.364 116.312l2.122 2.12-8.39 8.391-2.122-2.121zm101.468-60.649c-8.038 0-14.556 6.518-14.556 14.556 0 8.039 6.518 14.557 14.556 14.557 8.039 0 14.557-6.518 14.557-14.557 0-8.039-6.518-14.556-14.557-14.556zm-1.516 20.036l-5.459-5.238 1.694-1.741 3.733 3.562 7.406-7.543 1.723 1.709-9.097 9.251z"/></svg>