<svg xmlns="http://www.w3.org/2000/svg" width="200" height="150" viewBox="0 0 200 150"><path fill="none" stroke="#222" stroke-width="2" stroke-miterlimit="10" d="M12.688 28h76.226v91.526H12.688zm16.435 43.238H71.29m-42.167 5.773H71.29m-42.167 5.774h21.735"/><path fill="#010101" stroke="#424143" stroke-miterlimit="10" d="M33.329 52.273c1.753.52 3.541 1.057 3.525 3.231 0 1.591-1.364 2.665-3.525 2.762v1.932h-.324v-1.932c-1.429 0-2.939-.634-3.882-1.591l.227-.226c.861.91 2.291 1.494 3.655 1.494v-5.424c-1.657-.503-3.264-1.088-3.264-3.086 0-1.446 1.284-2.403 3.264-2.5V45.21h.324v1.705h.034c1.055 0 2.24.325 3.021.829l-.163.26c-.732-.47-1.852-.763-2.858-.763h-.034v5.032zm-.325-.097v-4.92c-1.786.097-2.939.925-2.939 2.175 0 1.721 1.414 2.274 2.939 2.745zm.325.438v5.326c1.965-.098 3.201-1.04 3.201-2.437.015-1.883-1.56-2.402-3.201-2.889z"/><path fill="none" stroke="#222" stroke-miterlimit="10" d="M27.845 105.944h38.002"/><path fill="none" stroke="#010101" stroke-width="2" stroke-miterlimit="10" d="M183.138 99.961h-52.673V64.407l26.336 21.727 26.337-21.727z"/><path fill="none" stroke="#010101" stroke-width="2" stroke-miterlimit="10" d="M169.969 75.271V64.407h-26.336v10.864m4.844-5.431h16.647m-16.647 3.798h16.647m-16.647 3.633h12.199m22.462-13.851l-26.337-20.904-26.336 20.904"/><circle fill="#222" cx="183.138" cy="61.772" r="7.323"/><path fill="#FFF" d="M182.881 64.634v-4.158h-.963V59.41h2.289v5.224h-1.326z"/><path fill="#222" d="M106.012 75l9 5.196-9 5.197z"/><path fill="none" stroke="#0CABDA" stroke-width=".5" stroke-miterlimit="10" d="M32.715 103.556c.161-.655-.153-1.438-.93-1.363-.462.045-.801.479-1.041.834-.353.525-.575 1.142-.707 1.758-.237 1.109-.069 2.277.752 3.104.416.42.936.48 1.465.239.841-.384 1.504-1.193 2.084-1.884 1.029-1.224 1.942-2.547 2.848-3.863 1.066-1.551 2.135-3.105 3.054-4.747.438-.782.916-1.623 1.116-2.505.032-.138.07-.307-.004-.438-.054-.096-.178-.284-.312-.233-.36.139-.589.792-.721 1.104-.376.896-.662 1.832-.958 2.756-.409 1.281-.801 2.568-1.197 3.854-.561 1.827-1.059 3.712-1.802 5.477l.213.248c.441-1.439 1.092-2.834 1.784-4.167 1.389-2.672 3.184-5.223 5.481-7.192 1.596-1.368 3.438-2.475 5.331-3.38 1.594-.764 3.433-1.552 5.235-1.538.412.002.848.064 1.207.282.329.199.411.586.423.951.02.603-.187 1.206-.41 1.757-.37.91-.883 1.764-1.418 2.587-.036.055.206.258.213.247.667-1.025 1.319-2.112 1.668-3.295.171-.581.28-1.279-.031-1.834-.662-1.176-2.17-1.015-3.296-.777-1.97.413-3.855 1.319-5.594 2.311-2.05 1.168-3.895 2.583-5.458 4.356-1.658 1.88-2.992 4.041-4.07 6.299-.485 1.016-.945 2.066-1.277 3.146-.022.073.215.245.213.248.366-.87.643-1.779.93-2.678.407-1.274.796-2.555 1.189-3.834.379-1.233.758-2.467 1.162-3.693.258-.782.5-1.597.885-2.329.102-.195.219-.392.373-.551a.433.433 0 0 1 .137-.104.099.099 0 0 1 .053-.01c.069.008-.155-.277-.132-.13.033.204-.055.438-.117.628a9.16 9.16 0 0 1-.5 1.188c-.722 1.481-1.633 2.87-2.552 4.233-1.006 1.494-2.018 2.986-3.111 4.418-.681.891-1.4 1.814-2.296 2.5-.47.36-1.115.691-1.684.35-.495-.296-.673-.973-.739-1.505-.084-.686.046-1.393.266-2.041.187-.546.466-1.085.866-1.506.233-.247 1.074-.728 1.213-.17.051.205.033.442-.018.646-.02.084.219.224.214.246z"/><path fill="none" stroke="#0CABDA" stroke-width=".5" stroke-miterlimit="10" d="M40.264 103.204c.286-.562.667-1.268.658-1.912-.009-.663-.775-.012-.951.17-.586.61-1.076 1.325-1.551 2.023-.486.713-.96 1.444-1.354 2.212-.112.22-.463.919.098.622.273-.144.503-.388.722-.602.388-.378.759-.775 1.131-1.17.833-.883 1.653-1.787 2.563-2.592a33.977 33.977 0 0 1 1.753-1.438c.23-.178.465-.353.708-.511.062-.04.318-.247.288-.106-.04.193-.227.39-.341.543-.124.165-.245.333-.367.5a115.241 115.241 0 0 0-2.691 3.935c-.05.077-.842 1.281-.75 1.319.222.092.634-.453.752-.572 2.591-2.61 5.093-5.326 7.809-7.808.231-.212.464-.422.713-.613l-.211.014c-1.812 2.522-3.625 5.06-5.584 7.471-.271.332-.541.681-.86.969l.233-.032c1.006-1.394 2.312-2.626 3.671-3.664a15.754 15.754 0 0 1 1.898-1.242c.732-.408 1.508-.736 2.249-1.131 1.211-.646 2.385-1.38 3.463-2.23.33-.261.65-.534.944-.834.144-.147.317-.316.387-.514.056-.158-.146-.143-.24-.122-.285.062-.555.226-.802.37-2.544 1.49-4.438 3.869-6.354 6.051-.7.798-1.4 1.595-2.105 2.388-.1.112.171.039.218-.014.464-.512.954-1.001 1.456-1.475.791-.746 1.644-1.554 2.723-1.831.295-.075 1.122-.271.982.294-.067.276-.284.521-.449.744a8.701 8.701 0 0 0-.563.868c-.314.546-1.001 2.055.235 1.897.777-.1 1.545-.543 2.221-.911.887-.483 1.756-1.035 2.527-1.688.219-.187 1.121-.901.813-1.284-.26-.325-1.078.165-1.32.296-1.17.638-2.205 1.587-3.073 2.589-1.002 1.158-1.85 2.551-2.066 4.09-.011.076.254-.006.266-.088.33-2.354 2.083-4.396 3.904-5.804a8.548 8.548 0 0 1 1.122-.743c.227-.123.496-.267.76-.271.201-.004.208.195.155.341-.109.305-.409.557-.641.766-.763.688-1.666 1.24-2.563 1.732-.419.23-.849.442-1.293.621-.306.122-.709.292-1.04.17-.49-.181-.14-.985-.005-1.286.271-.61.673-1.127 1.046-1.674.154-.228.438-.713.05-.867-.42-.167-1.024.065-1.424.188-.43.133-.817.401-1.177.663-.462.338-.894.72-1.312 1.108a25.271 25.271 0 0 0-1.555 1.568l.218-.014c1.144-1.287 2.277-2.582 3.413-3.878 1.113-1.271 2.265-2.489 3.594-3.539.431-.34.876-.661 1.348-.941.12-.072.497-.352.653-.296.096.035-.183.35-.205.376a7.575 7.575 0 0 1-.878.811c-1.067.872-2.25 1.604-3.46 2.26-.741.401-1.516.734-2.258 1.135-.638.345-1.247.743-1.831 1.172a19.75 19.75 0 0 0-2.75 2.467c-.423.454-.84.925-1.204 1.429-.065.092.202-.003.234-.032.423-.381.772-.856 1.125-1.299a93.965 93.965 0 0 0 1.727-2.242 301.141 301.141 0 0 0 3.186-4.33l.439-.608c.065-.091-.185-.007-.211.013-.492.378-.942.816-1.391 1.243-.699.665-1.384 1.344-2.065 2.025-1.424 1.424-2.83 2.866-4.239 4.305-.402.411-.802.824-1.212 1.226-.041.04-.081.08-.123.117-.026.023.126-.104.179-.029.003.005.012-.03.019-.046.109-.237.263-.46.402-.681a76.92 76.92 0 0 1 3.388-4.948c.039-.053.55-.681.278-.701-.315-.024-.694.317-.928.483a24.52 24.52 0 0 0-3.005 2.53c-.871.862-1.69 1.774-2.543 2.653-.281.289-.564.593-.889.835-.016.011-.118.061-.062.046.027-.007.016.003.009-.024-.015-.062.034-.158.055-.215.244-.649.665-1.255 1.035-1.835.477-.746.981-1.478 1.533-2.172.198-.248.405-.495.638-.711.037-.033.147-.126.156-.128.109-.027.142.193.143.263.004.372-.172.765-.308 1.102-.101.25-.214.498-.335.738-.05.095.215.014.249-.053z"/><path fill="#010101" d="M101.156 101.457a.108.108 0 0 1 .019-.008l.018-.006c-.042.013-.009.003.002.001.014-.002.007-.001-.021.001.013-.001.035.003-.021-.003h.005a.207.207 0 0 1-.064-.02l-.026-.014c.011.007.006.003-.017-.013-.022-.02-.014-.017-.007-.006-.013-.021-.003-.008 0 .001.005.016.005.032.006.049 0 .026.04.055.059.066a.322.322 0 0 0 .118.043c.049.009.138.011.137-.058-.004-.205-.301-.268-.455-.191-.065.032-.018.091.025.118.056.038.157.072.222.04z"/></svg>