<?xml version="1.0" encoding="utf-8"?>
<!-- Generator: Adobe Illustrator 16.0.0, SVG Export Plug-In . SVG Version: 6.00 Build 0)  -->
<!DOCTYPE svg PUBLIC "-//W3C//DTD SVG 1.1//EN" "http://www.w3.org/Graphics/SVG/1.1/DTD/svg11.dtd">
<svg version="1.1" id="Layer_1" xmlns="http://www.w3.org/2000/svg" xmlns:xlink="http://www.w3.org/1999/xlink" x="0px" y="0px"
	 width="200px" height="200px" viewBox="0 0 200 200" enable-background="new 0 0 200 200" xml:space="preserve">
<path fill="#555" d="M114.468,101.204l0.157,0.963c0,0.976-0.482,1.913-1.329,2.502c-2.714,1.875-2.354,1.402-3.378,4.463
	c-0.423,1.275-1.664,2.137-3.051,2.137h-0.012c-3.348-0.01-2.768-0.191-5.459,1.703c-0.564,0.404-1.231,0.601-1.896,0.601
	s-1.332-0.196-1.896-0.596c-2.691-1.896-2.111-1.714-5.459-1.703h-0.011c-1.385,0-2.626-0.861-3.049-2.138
	c-1.025-3.059-0.673-2.586-3.374-4.463c-0.851-0.593-1.336-1.53-1.336-2.506l0.154-0.957c1.045-3.046,1.05-2.46,0-5.515
	l-0.154-0.962c0-0.975,0.485-1.913,1.336-2.506c2.701-1.876,2.344-1.396,3.374-4.463c0.423-1.275,1.664-2.137,3.049-2.137h0.011
	c3.338,0.011,2.742,0.207,5.459-1.703c0.564-0.404,1.231-0.601,1.896-0.601s1.332,0.197,1.896,0.596
	c2.691,1.895,2.111,1.714,5.459,1.703h0.012c1.387,0,2.628,0.862,3.051,2.137c1.024,3.06,0.664,2.587,3.378,4.462
	c0.847,0.594,1.329,1.532,1.329,2.507l-0.157,0.962C113.424,98.736,113.424,98.15,114.468,101.204z M107.062,95.166l-2.344-2.34
	l-7.109,7.291l-3.328-3.16l-2.344,2.339l5.672,5.499L107.062,95.166z M129.75,118.614h-60.5v5.041h60.5V118.614z M124.709,128.698
	H74.292v5.041h50.417V128.698z M129.75,138.78h-60.5v5.043h60.5V138.78z M134.791,63.156H39v100.833h121V63.156H134.791z
	 M149.917,140.908c-5.801,2.54-10.459,7.197-12.998,12.998H62.082c-2.541-5.801-7.195-10.458-12.998-12.998V86.237
	c5.803-2.54,10.457-7.196,12.998-12.998h74.837c2.539,5.802,7.197,10.458,12.998,12.998V140.908z"/>
<g>
	<path fill="#2BB673" d="M72.865,51.346c0,1.149-0.805,1.93-1.93,1.93c-1.126,0-1.908-0.781-1.908-1.93c0-1.126,0.782-1.907,1.908-1.907
		C72.061,49.439,72.865,50.22,72.865,51.346z"/>
	<path fill="#2BB673" d="M90.513,39.582l-2.366,2.803c-1.058-1.287-2.62-2.091-4.044-2.091c-2.551,0-4.481,2.022-4.481,4.665
		c0,2.688,1.93,4.733,4.481,4.733c1.355,0,2.918-0.735,4.044-1.884l2.39,2.528c-1.724,1.769-4.274,2.941-6.641,2.941
		c-4.848,0-8.456-3.562-8.456-8.272c0-4.642,3.7-8.134,8.593-8.134C86.422,36.871,88.905,37.927,90.513,39.582z"/>
	<path fill="#2BB673" d="M97.638,40.225v3.194h7.675v3.217h-7.675v3.24h8.755v3.217H93.548V37.008h12.59v3.217H97.638z"/>
	<path fill="#2BB673" d="M117.493,48.566h-0.115h-3.102v4.527h-4.09V37.008h7.191c4.251,0,6.687,2.022,6.687,5.606c0,2.458-1.033,4.228-2.918,5.17
		l3.378,5.308h-4.642L117.493,48.566z M117.378,45.349c1.77,0,2.804-0.896,2.804-2.597c0-1.677-1.034-2.527-2.804-2.527h-3.102
		v5.124H117.378z"/>
</g>
<rect x="39" y="63.156" fill="none" stroke="#FFFFFF" stroke-width="7" stroke-miterlimit="10" width="121" height="100.833"/>
</svg>
