<?xml version="1.0" encoding="utf-8"?>
<!-- Generator: Adobe Illustrator 16.0.0, SVG Export Plug-In . SVG Version: 6.00 Build 0)  -->
<!DOCTYPE svg PUBLIC "-//W3C//DTD SVG 1.1//EN" "http://www.w3.org/Graphics/SVG/1.1/DTD/svg11.dtd">
<svg version="1.1" id="Layer_1" xmlns="http://www.w3.org/2000/svg" xmlns:xlink="http://www.w3.org/1999/xlink" x="0px" y="0px"
	 width="200px" height="200px" viewBox="0 0 200 200" enable-background="new 0 0 200 200" xml:space="preserve">
<circle fill="#555555" cx="97.303" cy="28.757" r="17.829"/>
<path fill="#FFFFFF" d="M88.688,26.639l8.614-8.614l8.615,8.614l-0.312,0.31h-4.459v13.386H93.46V26.949h-4.461"/>
<path fill="none" stroke="#555555" stroke-width="2" stroke-miterlimit="10" d="M55.495,81.237h83.614v100.399H55.495V81.237z
	 M55.495,55.237h83.614V62H55.495V55.237z"/>
<path fill="#555555" stroke="#555555" stroke-width="2" stroke-miterlimit="10" d="M54.993,55.237h59.569V62H54.993V55.237z"/>
<path fill="none" stroke="#555555" stroke-width="4" stroke-miterlimit="10" d="M70.298,143.088h50.479 M70.298,150.999h50.479
	 M70.298,158.91h26.021"/>
<g>
	<path fill="#2bb673" d="M72.804,120.841c0,1.05-0.735,1.764-1.764,1.764s-1.743-0.714-1.743-1.764c0-1.028,0.714-1.743,1.743-1.743
		S72.804,119.812,72.804,120.841z"/>
	<path fill="#2bb673" d="M89.917,122.437h-4.472l-3.17-4.683l-3.17,4.683h-4.346l5.249-7.517l-4.913-7.181h4.346l2.834,4.283l2.834-4.283h4.388
		l-4.85,7.013L89.917,122.437z"/>
	<path fill="#2bb673" d="M105.436,122.437l-0.021-9.554l-3.527,8.084h-2.436l-3.527-8.084v9.554h-3.338v-14.718h4.094l3.989,8.755l3.989-8.755
		h4.073v14.718H105.436z"/>
	<path fill="#2bb673" d="M122.719,119.309v3.128h-9.973v-14.697h3.737v11.569H122.719z"/>
</g>
</svg>
