<?xml version="1.0" encoding="utf-8"?>
<!-- Generator: Adobe Illustrator 16.0.0, SVG Export Plug-In . SVG Version: 6.00 Build 0)  -->
<!DOCTYPE svg PUBLIC "-//W3C//DTD SVG 1.1//EN" "http://www.w3.org/Graphics/SVG/1.1/DTD/svg11.dtd">
<svg version="1.1" id="Layer_1" xmlns="http://www.w3.org/2000/svg" xmlns:xlink="http://www.w3.org/1999/xlink" x="0px" y="0px"
	 width="200px" height="200px" viewBox="0 0 200 200" enable-background="new 0 0 200 200" xml:space="preserve">
<path fill="none" stroke="#555555" stroke-width="2" stroke-miterlimit="10" d="M20.611,34.199h163.737V171.5H20.611V34.199z"/>
<path fill="#555555" d="M20.611,34.199h163.737V47H20.611V34.199z"/>
<circle fill="#FFFFFF" cx="27.8" cy="40.6" r="3.2"/>
<circle fill="#FFFFFF" cx="38.754" cy="40.6" r="3.2"/>
<circle fill="#FFFFFF" cx="49.306" cy="40.6" r="3.2"/>
<g>
	<path fill="#555555" d="M39.301,66.116v2.43h4.71v2.1h-4.71v3.87h-2.67v-10.5h7.785v2.1H39.301z"/>
	<path fill="#555555" d="M46.44,74.515v-10.5h2.67v10.5H46.44z"/>
	<path fill="#555555" d="M56.73,71.56h-0.074h-2.025v2.955h-2.67v-10.5h4.695c2.774,0,4.364,1.32,4.364,3.66c0,1.605-0.675,2.76-1.904,3.375
		l2.204,3.465h-3.029L56.73,71.56z M56.656,69.46c1.154,0,1.829-0.585,1.829-1.695c0-1.095-0.675-1.65-1.829-1.65h-2.025v3.345
		H56.656z"/>
	<path fill="#555555" d="M72.75,74.515l-0.015-6.825l-2.521,5.775h-1.739l-2.521-5.775v6.825H63.57V64h2.925l2.851,6.255L72.195,64h2.91v10.515
		H72.75z"/>
	<path fill="#555555" d="M80.355,72.58l-0.765,1.935h-2.745l4.53-10.5h2.744l4.426,10.5h-2.851l-0.75-1.935H80.355z M82.666,66.67l-1.53,3.885h3.03
		L82.666,66.67z"/>
	<path fill="#555555" d="M98.4,65.065l-1.005,2.085c-1.11-0.645-2.505-1.095-3.36-1.095c-0.689,0-1.154,0.255-1.154,0.765
		c0,1.815,5.55,0.78,5.55,4.575c0,2.1-1.86,3.21-4.2,3.21c-1.755,0-3.555-0.66-4.8-1.68l1.035-2.055
		c1.08,0.945,2.7,1.575,3.795,1.575c0.84,0,1.365-0.315,1.365-0.915c0-1.86-5.55-0.75-5.55-4.47c0-1.935,1.664-3.165,4.185-3.165
		C95.775,63.896,97.32,64.36,98.4,65.065z"/>
</g>
<path fill="#2BB673" d="M169.353,87.589l-10.15,10.403l-4.755-4.506l-3.34,3.342l8.095,7.85l13.491-13.748L169.353,87.589z"/>
<path fill="#2BB673" d="M169.353,108.25l-10.15,10.403l-4.755-4.507l-3.34,3.343l8.095,7.85l13.491-13.748L169.353,108.25z"/>
<line fill="none" stroke="#ED5565" stroke-width="5" stroke-miterlimit="10" x1="153.081" y1="135.474" x2="168.134" y2="150.526"/>
<line fill="none" stroke="#ED5565" stroke-width="5" stroke-miterlimit="10" x1="168.134" y1="135.474" x2="153.081" y2="150.526"/>
<line fill="none" stroke="#555555" stroke-width="6" stroke-miterlimit="10" x1="34.779" y1="96.133" x2="143.198" y2="96.133"/>
<line fill="none" stroke="#555555" stroke-width="6" stroke-miterlimit="10" x1="35.221" y1="119.066" x2="143.641" y2="119.066"/>
<line fill="none" stroke="#555555" stroke-width="6" stroke-miterlimit="10" x1="34.336" y1="143" x2="142.756" y2="143"/>
</svg>
